{
    "accessors" : [
        {
            "bufferView" : 0, 
            "componentType" : 5121, 
            "count" : 30, 
            "max" : [
                19
            ], 
            "min" : [
                0
            ], 
            "type" : "SCALAR"
        }, 
        {
            "bufferView" : 1, 
            "componentType" : 5126, 
            "count" : 20, 
            "max" : [
                0.0, 
                0.9999144673347473, 
                0.9999144673347473
            ], 
            "min" : [
                -0.9999145865440369, 
                -9.53592831365313e-08, 
                -8.741528745304095e-08
            ], 
            "type" : "VEC3"
        }, 
        {
            "bufferView" : 2, 
            "componentType" : 5126, 
            "count" : 20, 
            "max" : [
                1.0, 
                0.0, 
                1.0
            ], 
            "min" : [
                -1.0, 
                -1.0, 
                -1.0
            ], 
            "type" : "VEC3"
        }, 
        {
            "bufferView" : 3, 
            "componentType" : 5126, 
            "count" : 20, 
            "max" : [
                1.0, 
                9.690160851505425e-08, 
                1.0, 
                1.0
            ], 
            "min" : [
                -1.0, 
                -9.690388225180868e-08, 
                -1.0, 
                -1.0
            ], 
            "type" : "VEC4"
        }, 
        {
            "bufferView" : 4, 
            "componentType" : 5126, 
            "count" : 20, 
            "max" : [
                39.370079040527344, 
                1.0
            ], 
            "min" : [
                -39.370079040527344, 
                -38.370079040527344
            ], 
            "type" : "VEC2"
        }, 
        {
            "bufferView" : 5, 
            "componentType" : 5121, 
            "count" : 6, 
            "max" : [
                3
            ], 
            "min" : [
                0
            ], 
            "type" : "SCALAR"
        }, 
        {
            "bufferView" : 6, 
            "componentType" : 5126, 
            "count" : 4, 
            "max" : [
                -8.336571958743235e-15, 
                0.9999144673347473, 
                0.9999144673347473
            ], 
            "min" : [
                -0.9999145865440369, 
                0.9999144673347473, 
                7.943995683490357e-09
            ], 
            "type" : "VEC3"
        }, 
        {
            "bufferView" : 7, 
            "componentType" : 5126, 
            "count" : 4, 
            "max" : [
                0.0, 
                1.0, 
                -0.0
            ], 
            "min" : [
                0.0, 
                1.0, 
                -0.0
            ], 
            "type" : "VEC3"
        }, 
        {
            "bufferView" : 8, 
            "componentType" : 5126, 
            "count" : 4, 
            "max" : [
                -1.0, 
                6.361383952935284e-08, 
                -9.690158719877218e-08, 
                1.0
            ], 
            "min" : [
                -1.0, 
                -2.0396065045225065e-11, 
                -9.690159430419953e-08, 
                1.0
            ], 
            "type" : "VEC4"
        }, 
        {
            "bufferView" : 9, 
            "componentType" : 5126, 
            "count" : 4, 
            "max" : [
                39.370079040527344, 
                1.0
            ], 
            "min" : [
                0.0, 
                -38.370079040527344
            ], 
            "type" : "VEC2"
        }
    ], 
    "asset" : {
        "generator" : "Khronos Blender glTF 2.0 exporter", 
        "version" : "2.0"
    }, 
    "bufferViews" : [
        {
            "buffer" : 0, 
            "byteLength" : 30, 
            "byteOffset" : 0, 
            "target" : 34963
        }, 
        {
            "buffer" : 0, 
            "byteLength" : 240, 
            "byteOffset" : 32, 
            "target" : 34962
        }, 
        {
            "buffer" : 0, 
            "byteLength" : 240, 
            "byteOffset" : 272, 
            "target" : 34962
        }, 
        {
            "buffer" : 0, 
            "byteLength" : 320, 
            "byteOffset" : 512, 
            "target" : 34962
        }, 
        {
            "buffer" : 0, 
            "byteLength" : 160, 
            "byteOffset" : 832, 
            "target" : 34962
        }, 
        {
            "buffer" : 0, 
            "byteLength" : 6, 
            "byteOffset" : 992, 
            "target" : 34963
        }, 
        {
            "buffer" : 0, 
            "byteLength" : 48, 
            "byteOffset" : 1000, 
            "target" : 34962
        }, 
        {
            "buffer" : 0, 
            "byteLength" : 48, 
            "byteOffset" : 1048, 
            "target" : 34962
        }, 
        {
            "buffer" : 0, 
            "byteLength" : 64, 
            "byteOffset" : 1096, 
            "target" : 34962
        }, 
        {
            "buffer" : 0, 
            "byteLength" : 32, 
            "byteOffset" : 1160, 
            "target" : 34962
        }
    ], 
    "buffers" : [
        {
            "byteLength" : 1192, 
            "uri" : "cliffGrey_block.bin"
        }
    ], 
    "materials" : [
        {
            "name" : "natureKit-leavesGreen", 
            "pbrMetallicRoughness" : {
                "baseColorFactor" : [
                    0.3529411852359772, 
                    0.7686275243759155, 
                    0.7137255072593689, 
                    1.0
                ], 
                "metallicFactor" : 0.0
            }
        }, 
        {
            "name" : "natureKit-stone", 
            "pbrMetallicRoughness" : {
                "baseColorFactor" : [
                    0.6588234901428223, 
                    0.8078430891036987, 
                    0.8274509906768799, 
                    1.0
                ], 
                "metallicFactor" : 0.0
            }
        }
    ], 
    "meshes" : [
        {
            "name" : "cliffGrey_block", 
            "primitives" : [
                {
                    "attributes" : {
                        "NORMAL" : 2, 
                        "POSITION" : 1, 
                        "TANGENT" : 3, 
                        "TEXCOORD_0" : 4
                    }, 
                    "indices" : 0, 
                    "material" : 1
                }, 
                {
                    "attributes" : {
                        "NORMAL" : 7, 
                        "POSITION" : 6, 
                        "TANGENT" : 8, 
                        "TEXCOORD_0" : 9
                    }, 
                    "indices" : 5, 
                    "material" : 0
                }
            ]
        }
    ], 
    "nodes" : [
        {
            "mesh" : 0, 
            "name" : "cliffGrey_block", 
            "rotation" : [
                0.0, 
                -1.5099580252808664e-07, 
                -0.0, 
                1.0
            ]
        }
    ], 
    "scene" : 0, 
    "scenes" : [
        {
            "name" : "Scene", 
            "nodes" : [
                0
            ]
        }
    ]
}
