{
    "accessors" : [
        {
            "bufferView" : 0, 
            "componentType" : 5123, 
            "count" : 2538, 
            "max" : [
                615
            ], 
            "min" : [
                0
            ], 
            "type" : "SCALAR"
        }, 
        {
            "bufferView" : 1, 
            "componentType" : 5126, 
            "count" : 616, 
            "max" : [
                1.7129228115081787, 
                4.1883158683776855, 
                0.014837503433227539
            ], 
            "min" : [
                -1.37940514087677, 
                -15.654949188232422, 
                -3.9225821495056152
            ], 
            "type" : "VEC3"
        }, 
        {
            "bufferView" : 2, 
            "componentType" : 5126, 
            "count" : 616, 
            "max" : [
                0.9982604384422302, 
                0.9974669814109802, 
                0.999969482421875
            ], 
            "min" : [
                -0.99945068359375, 
                -0.999786376953125, 
                -0.9996337890625
            ], 
            "type" : "VEC3"
        }, 
        {
            "bufferView" : 3, 
            "componentType" : 5126, 
            "count" : 616, 
            "max" : [
                0.9968305826187134, 
                0.9919238090515137, 
                0.9364635944366455, 
                1.0
            ], 
            "min" : [
                -0.9952830076217651, 
                -0.9997963905334473, 
                -0.8309690952301025, 
                -1.0
            ], 
            "type" : "VEC4"
        }, 
        {
            "bufferView" : 4, 
            "componentType" : 5126, 
            "count" : 616, 
            "max" : [
                1.989258050918579, 
                0.9868160001933575
            ], 
            "min" : [
                -0.0010600000387057662, 
                0.014029979705810547
            ], 
            "type" : "VEC2"
        }
    ], 
    "asset" : {
        "generator" : "Khronos Blender glTF 2.0 exporter", 
        "version" : "2.0"
    }, 
    "bufferViews" : [
        {
            "buffer" : 0, 
            "byteLength" : 5076, 
            "byteOffset" : 0, 
            "target" : 34963
        }, 
        {
            "buffer" : 0, 
            "byteLength" : 7392, 
            "byteOffset" : 5076, 
            "target" : 34962
        }, 
        {
            "buffer" : 0, 
            "byteLength" : 7392, 
            "byteOffset" : 12468, 
            "target" : 34962
        }, 
        {
            "buffer" : 0, 
            "byteLength" : 9856, 
            "byteOffset" : 19860, 
            "target" : 34962
        }, 
        {
            "buffer" : 0, 
            "byteLength" : 4928, 
            "byteOffset" : 29716, 
            "target" : 34962
        }
    ], 
    "buffers" : [
        {
            "byteLength" : 34644, 
            "uri" : "rat.bin"
        }
    ], 
    "materials" : [
        {
            "name" : "Material.001", 
            "pbrMetallicRoughness" : {
                "baseColorFactor" : [
                    0.18126708539228265, 
                    0.18126708539228265, 
                    0.18126708539228265, 
                    1.0
                ], 
                "metallicFactor" : 0.0
            }
        }
    ], 
    "meshes" : [
        {
            "name" : "grp1", 
            "primitives" : [
                {
                    "attributes" : {
                        "NORMAL" : 2, 
                        "POSITION" : 1, 
                        "TANGENT" : 3, 
                        "TEXCOORD_0" : 4
                    }, 
                    "indices" : 0, 
                    "material" : 0
                }
            ]
        }
    ], 
    "nodes" : [
        {
            "mesh" : 0, 
            "name" : "grp1", 
            "rotation" : [
                0.7071068286895752, 
                0.0, 
                -0.0, 
                0.7071068286895752
            ]
        }
    ], 
    "scene" : 0, 
    "scenes" : [
        {
            "name" : "Scene", 
            "nodes" : [
                0
            ]
        }
    ]
}
