{
    "accessors" : [
        {
            "bufferView" : 0, 
            "componentType" : 5121, 
            "count" : 228, 
            "max" : [
                151
            ], 
            "min" : [
                0
            ], 
            "type" : "SCALAR"
        }, 
        {
            "bufferView" : 1, 
            "componentType" : 5126, 
            "count" : 152, 
            "max" : [
                -1.1024420261383057, 
                1.4495707750320435, 
                0.8871127367019653
            ], 
            "min" : [
                -2.8551254272460938, 
                0.9960945844650269, 
                -1.1690551042556763
            ], 
            "type" : "VEC3"
        }, 
        {
            "bufferView" : 2, 
            "componentType" : 5126, 
            "count" : 152, 
            "max" : [
                1.0, 
                1.0, 
                1.0
            ], 
            "min" : [
                -1.0, 
                -1.0, 
                -1.0
            ], 
            "type" : "VEC3"
        }, 
        {
            "bufferView" : 3, 
            "componentType" : 5121, 
            "count" : 144, 
            "max" : [
                93
            ], 
            "min" : [
                0
            ], 
            "type" : "SCALAR"
        }, 
        {
            "bufferView" : 4, 
            "componentType" : 5126, 
            "count" : 94, 
            "max" : [
                0.5140341520309448, 
                1.7898608446121216, 
                1.0000005960464478
            ], 
            "min" : [
                -1.0000003576278687, 
                0.039769887924194336, 
                -1.0000003576278687
            ], 
            "type" : "VEC3"
        }, 
        {
            "bufferView" : 5, 
            "componentType" : 5126, 
            "count" : 94, 
            "max" : [
                1.0, 
                1.0, 
                1.0
            ], 
            "min" : [
                -1.0, 
                -1.0, 
                -1.0
            ], 
            "type" : "VEC3"
        }, 
        {
            "bufferView" : 6, 
            "componentType" : 5121, 
            "count" : 132, 
            "max" : [
                95
            ], 
            "min" : [
                0
            ], 
            "type" : "SCALAR"
        }, 
        {
            "bufferView" : 7, 
            "componentType" : 5126, 
            "count" : 96, 
            "max" : [
                -0.8269760608673096, 
                0.8096070289611816, 
                -0.20290255546569824
            ], 
            "min" : [
                -1.3404605388641357, 
                0.5051587820053101, 
                -1.0251810550689697
            ], 
            "type" : "VEC3"
        }, 
        {
            "bufferView" : 8, 
            "componentType" : 5126, 
            "count" : 96, 
            "max" : [
                1.0, 
                0.9429097175598145, 
                1.0
            ], 
            "min" : [
                -1.0, 
                -0.9429097175598145, 
                -1.0
            ], 
            "type" : "VEC3"
        }, 
        {
            "bufferView" : 9, 
            "componentType" : 5121, 
            "count" : 6, 
            "max" : [
                3
            ], 
            "min" : [
                0
            ], 
            "type" : "SCALAR"
        }, 
        {
            "bufferView" : 10, 
            "componentType" : 5126, 
            "count" : 4, 
            "max" : [
                1.292289137840271, 
                1.9783001903306285e-07, 
                3.620337963104248
            ], 
            "min" : [
                -1.0000001192092896, 
                0.0, 
                -1.0
            ], 
            "type" : "VEC3"
        }, 
        {
            "bufferView" : 11, 
            "componentType" : 5126, 
            "count" : 4, 
            "max" : [
                0.0, 
                1.0, 
                -4.2817219991775346e-08
            ], 
            "min" : [
                0.0, 
                1.0, 
                -4.2817219991775346e-08
            ], 
            "type" : "VEC3"
        }
    ], 
    "asset" : {
        "generator" : "Khronos Blender glTF 2.0 exporter", 
        "version" : "2.0"
    }, 
    "bufferViews" : [
        {
            "buffer" : 0, 
            "byteLength" : 228, 
            "byteOffset" : 0, 
            "target" : 34963
        }, 
        {
            "buffer" : 0, 
            "byteLength" : 1824, 
            "byteOffset" : 228, 
            "target" : 34962
        }, 
        {
            "buffer" : 0, 
            "byteLength" : 1824, 
            "byteOffset" : 2052, 
            "target" : 34962
        }, 
        {
            "buffer" : 0, 
            "byteLength" : 144, 
            "byteOffset" : 3876, 
            "target" : 34963
        }, 
        {
            "buffer" : 0, 
            "byteLength" : 1128, 
            "byteOffset" : 4020, 
            "target" : 34962
        }, 
        {
            "buffer" : 0, 
            "byteLength" : 1128, 
            "byteOffset" : 5148, 
            "target" : 34962
        }, 
        {
            "buffer" : 0, 
            "byteLength" : 132, 
            "byteOffset" : 6276, 
            "target" : 34963
        }, 
        {
            "buffer" : 0, 
            "byteLength" : 1152, 
            "byteOffset" : 6408, 
            "target" : 34962
        }, 
        {
            "buffer" : 0, 
            "byteLength" : 1152, 
            "byteOffset" : 7560, 
            "target" : 34962
        }, 
        {
            "buffer" : 0, 
            "byteLength" : 6, 
            "byteOffset" : 8712, 
            "target" : 34963
        }, 
        {
            "buffer" : 0, 
            "byteLength" : 48, 
            "byteOffset" : 8720, 
            "target" : 34962
        }, 
        {
            "buffer" : 0, 
            "byteLength" : 48, 
            "byteOffset" : 8768, 
            "target" : 34962
        }
    ], 
    "buffers" : [
        {
            "byteLength" : 8816, 
            "uri" : "house.bin"
        }
    ], 
    "materials" : [
        {
            "name" : "Material", 
            "pbrMetallicRoughness" : {
                "baseColorFactor" : [
                    0.7523134820507984, 
                    0.5953385918637899, 
                    0.3958474933482332, 
                    1.0
                ], 
                "metallicFactor" : 0.0
            }
        }, 
        {
            "name" : "Material.001", 
            "pbrMetallicRoughness" : {
                "baseColorFactor" : [
                    0.14757540445887152, 
                    0.04130747677843982, 
                    0.01908886759115558, 
                    1.0
                ], 
                "metallicFactor" : 0.0
            }
        }, 
        {
            "name" : "Material.002", 
            "pbrMetallicRoughness" : {
                "baseColorFactor" : [
                    0.005754822578353025, 
                    0.004983929618953609, 
                    0.0039296221573594525, 
                    1.0
                ], 
                "metallicFactor" : 0.0
            }
        }
    ], 
    "meshes" : [
        {
            "name" : "Cube.001", 
            "primitives" : [
                {
                    "attributes" : {
                        "NORMAL" : 2, 
                        "POSITION" : 1
                    }, 
                    "indices" : 0, 
                    "material" : 1
                }
            ]
        }, 
        {
            "name" : "Cube", 
            "primitives" : [
                {
                    "attributes" : {
                        "NORMAL" : 5, 
                        "POSITION" : 4
                    }, 
                    "indices" : 3, 
                    "material" : 0
                }
            ]
        }, 
        {
            "name" : "Cube.002", 
            "primitives" : [
                {
                    "attributes" : {
                        "NORMAL" : 8, 
                        "POSITION" : 7
                    }, 
                    "indices" : 6, 
                    "material" : 1
                }
            ]
        }, 
        {
            "name" : "Plane.001", 
            "primitives" : [
                {
                    "attributes" : {
                        "NORMAL" : 11, 
                        "POSITION" : 10
                    }, 
                    "indices" : 9, 
                    "material" : 2
                }
            ]
        }
    ], 
    "nodes" : [
        {
            "mesh" : 1, 
            "name" : "Cube", 
            "rotation" : [
                0.0, 
                0.7071067094802856, 
                -0.0, 
                0.7071068286895752
            ]
        }, 
        {
            "mesh" : 0, 
            "name" : "Cube.001", 
            "rotation" : [
                0.0, 
                0.7071067094802856, 
                -0.0, 
                0.7071068286895752
            ], 
            "scale" : [
                1.0438206195831299, 
                1.0438206195831299, 
                1.0438206195831299
            ], 
            "translation" : [
                0.14233791828155518, 
                0.4292979836463928, 
                -1.8114314079284668
            ]
        }, 
        {
            "mesh" : 2, 
            "name" : "Cube.002", 
            "rotation" : [
                0.0, 
                0.7071067094802856, 
                -0.0, 
                0.7071068286895752
            ], 
            "translation" : [
                0.14233791828155518, 
                0.46640777587890625, 
                -1.8233380317687988
            ]
        }, 
        {
            "mesh" : 3, 
            "name" : "Plane", 
            "rotation" : [
                0.5000000596046448, 
                -0.5, 
                -0.4999999701976776, 
                0.5
            ], 
            "scale" : [
                -0.5279993414878845, 
                -0.3388845920562744, 
                -0.3388845920562744
            ], 
            "translation" : [
                -0.5052117109298706, 
                0.5460683703422546, 
                -0.33097317814826965
            ]
        }
    ], 
    "scene" : 0, 
    "scenes" : [
        {
            "name" : "Scene", 
            "nodes" : [
                3, 
                2, 
                1, 
                0
            ]
        }
    ]
}
