{
    "accessors" : [
        {
            "bufferView" : 0, 
            "componentType" : 5121, 
            "count" : 180, 
            "max" : [
                31
            ], 
            "min" : [
                0
            ], 
            "type" : "SCALAR"
        }, 
        {
            "bufferView" : 1, 
            "componentType" : 5126, 
            "count" : 32, 
            "max" : [
                1.86080801486969, 
                2.9096927642822266, 
                1.8019194602966309
            ], 
            "min" : [
                -2.1358931064605713, 
                -0.023061037063598633, 
                -2.1947813034057617
            ], 
            "type" : "VEC3"
        }, 
        {
            "bufferView" : 2, 
            "componentType" : 5126, 
            "count" : 32, 
            "max" : [
                0.9062776565551758, 
                0.9311502575874329, 
                0.9709463715553284
            ], 
            "min" : [
                -0.922482967376709, 
                -0.8048951625823975, 
                -0.9062776565551758
            ], 
            "type" : "VEC3"
        }
    ], 
    "asset" : {
        "generator" : "Khronos Blender glTF 2.0 exporter", 
        "version" : "2.0"
    }, 
    "bufferViews" : [
        {
            "buffer" : 0, 
            "byteLength" : 180, 
            "byteOffset" : 0, 
            "target" : 34963
        }, 
        {
            "buffer" : 0, 
            "byteLength" : 384, 
            "byteOffset" : 180, 
            "target" : 34962
        }, 
        {
            "buffer" : 0, 
            "byteLength" : 384, 
            "byteOffset" : 564, 
            "target" : 34962
        }
    ], 
    "buffers" : [
        {
            "byteLength" : 948, 
            "uri" : "moneybag.bin"
        }
    ], 
    "materials" : [
        {
            "name" : "Material", 
            "pbrMetallicRoughness" : {
                "baseColorFactor" : [
                    0.2739061634824598, 
                    0.18410216844234117, 
                    0.06154893132372097, 
                    1.0
                ], 
                "metallicFactor" : 0.0
            }
        }
    ], 
    "meshes" : [
        {
            "name" : "Cube", 
            "primitives" : [
                {
                    "attributes" : {
                        "NORMAL" : 2, 
                        "POSITION" : 1
                    }, 
                    "indices" : 0, 
                    "material" : 0
                }
            ]
        }
    ], 
    "nodes" : [
        {
            "mesh" : 0, 
            "name" : "Cube"
        }
    ], 
    "scene" : 0, 
    "scenes" : [
        {
            "name" : "Scene", 
            "nodes" : [
                0
            ]
        }
    ]
}
