{
    "accessors" : [
        {
            "bufferView" : 0, 
            "componentType" : 5121, 
            "count" : 48, 
            "max" : [
                14
            ], 
            "min" : [
                0
            ], 
            "type" : "SCALAR"
        }, 
        {
            "bufferView" : 1, 
            "componentType" : 5126, 
            "count" : 15, 
            "max" : [
                5.067548751831055, 
                1.3741791248321533, 
                1.0118762254714966
            ], 
            "min" : [
                -5.067548751831055, 
                -0.08010315895080566, 
                -1.079306721687317
            ], 
            "type" : "VEC3"
        }, 
        {
            "bufferView" : 2, 
            "componentType" : 5126, 
            "count" : 15, 
            "max" : [
                0.37809380888938904, 
                0.5673085451126099, 
                1.0
            ], 
            "min" : [
                -0.443800151348114, 
                -0.5673085451126099, 
                0.7748039364814758
            ], 
            "type" : "VEC3"
        }
    ], 
    "asset" : {
        "generator" : "Khronos Blender glTF 2.0 exporter", 
        "version" : "2.0"
    }, 
    "bufferViews" : [
        {
            "buffer" : 0, 
            "byteLength" : 48, 
            "byteOffset" : 0, 
            "target" : 34963
        }, 
        {
            "buffer" : 0, 
            "byteLength" : 180, 
            "byteOffset" : 48, 
            "target" : 34962
        }, 
        {
            "buffer" : 0, 
            "byteLength" : 180, 
            "byteOffset" : 228, 
            "target" : 34962
        }
    ], 
    "buffers" : [
        {
            "byteLength" : 408, 
            "uri" : "slash.bin"
        }
    ], 
    "materials" : [
        {
            "name" : "Material.002", 
            "pbrMetallicRoughness" : {
                "baseColorFactor" : [
                    0.6400000190734865, 
                    0.6400000190734865, 
                    0.6400000190734865, 
                    1.0
                ], 
                "metallicFactor" : 0.0
            }
        }
    ], 
    "meshes" : [
        {
            "name" : "Plane", 
            "primitives" : [
                {
                    "attributes" : {
                        "NORMAL" : 2, 
                        "POSITION" : 1
                    }, 
                    "indices" : 0, 
                    "material" : 0
                }
            ]
        }
    ], 
    "nodes" : [
        {
            "mesh" : 0, 
            "name" : "Plane", 
            "scale" : [
                2.4800186157226562, 
                2.4800186157226562, 
                2.4800186157226562
            ], 
            "translation" : [
                0.027332305908203125, 
                0.007270336151123047, 
                0.01972198486328125
            ]
        }
    ], 
    "scene" : 0, 
    "scenes" : [
        {
            "name" : "Scene", 
            "nodes" : [
                0
            ]
        }
    ]
}
