{
    "accessors" : [
        {
            "bufferView" : 0, 
            "componentType" : 5121, 
            "count" : 312, 
            "max" : [
                221
            ], 
            "min" : [
                0
            ], 
            "type" : "SCALAR"
        }, 
        {
            "bufferView" : 1, 
            "componentType" : 5126, 
            "count" : 222, 
            "max" : [
                0.029762808233499527, 
                0.005000000819563866, 
                0.02092287503182888
            ], 
            "min" : [
                -0.015259270556271076, 
                0.0, 
                -0.031024238094687462
            ], 
            "type" : "VEC3"
        }, 
        {
            "bufferView" : 2, 
            "componentType" : 5126, 
            "count" : 222, 
            "max" : [
                1.0, 
                1.0, 
                0.9999842643737793
            ], 
            "min" : [
                -1.0, 
                -1.0, 
                -1.0
            ], 
            "type" : "VEC3"
        }, 
        {
            "bufferView" : 3, 
            "componentType" : 5121, 
            "count" : 108, 
            "max" : [
                75
            ], 
            "min" : [
                0
            ], 
            "type" : "SCALAR"
        }, 
        {
            "bufferView" : 4, 
            "componentType" : 5126, 
            "count" : 76, 
            "max" : [
                0.01639995165169239, 
                0.003161140251904726, 
                -0.024790873751044273
            ], 
            "min" : [
                -0.002146483864635229, 
                -0.0004324808542151004, 
                -0.11302770674228668
            ], 
            "type" : "VEC3"
        }, 
        {
            "bufferView" : 5, 
            "componentType" : 5126, 
            "count" : 76, 
            "max" : [
                0.9985696077346802, 
                1.0, 
                1.0
            ], 
            "min" : [
                -0.9985696077346802, 
                -1.0, 
                -0.5634177923202515
            ], 
            "type" : "VEC3"
        }, 
        {
            "bufferView" : 6, 
            "componentType" : 5126, 
            "count" : 4, 
            "max" : [
                0.75
            ], 
            "min" : [
                0.0
            ], 
            "type" : "SCALAR"
        }, 
        {
            "bufferView" : 7, 
            "componentType" : 5126, 
            "count" : 12, 
            "max" : [
                0.0, 
                0.001143109635449946, 
                -0.0
            ], 
            "min" : [
                0.0, 
                0.0, 
                -0.0
            ], 
            "type" : "VEC3"
        }, 
        {
            "bufferView" : 8, 
            "componentType" : 5126, 
            "count" : 20, 
            "max" : [
                0.7916666666666667
            ], 
            "min" : [
                0.0
            ], 
            "type" : "SCALAR"
        }, 
        {
            "bufferView" : 9, 
            "componentType" : 5126, 
            "count" : 20, 
            "max" : [
                0.0, 
                0.0, 
                -0.0, 
                1.0
            ], 
            "min" : [
                0.0, 
                0.0, 
                -0.0, 
                1.0
            ], 
            "type" : "VEC4"
        }, 
        {
            "bufferView" : 10, 
            "componentType" : 5126, 
            "count" : 7, 
            "max" : [
                0.7916666666666667
            ], 
            "min" : [
                0.0
            ], 
            "type" : "SCALAR"
        }, 
        {
            "bufferView" : 11, 
            "componentType" : 5126, 
            "count" : 21, 
            "max" : [
                1.0, 
                1.0, 
                1.0
            ], 
            "min" : [
                0.0, 
                0.0, 
                0.0
            ], 
            "type" : "VEC3"
        }, 
        {
            "bufferView" : 12, 
            "componentType" : 5126, 
            "count" : 7, 
            "max" : [
                0.7916666666666667
            ], 
            "min" : [
                0.0
            ], 
            "type" : "SCALAR"
        }, 
        {
            "bufferView" : 13, 
            "componentType" : 5126, 
            "count" : 21, 
            "max" : [
                28.38043212890625, 
                8.230369567871094, 
                3.4320602416992188
            ], 
            "min" : [
                -3.0662841796875, 
                -14.893341064453125, 
                -10.619925498962402
            ], 
            "type" : "VEC3"
        }, 
        {
            "bufferView" : 14, 
            "componentType" : 5126, 
            "count" : 20, 
            "max" : [
                0.7916666666666667
            ], 
            "min" : [
                0.0
            ], 
            "type" : "SCALAR"
        }, 
        {
            "bufferView" : 15, 
            "componentType" : 5126, 
            "count" : 20, 
            "max" : [
                0.3524794280529022, 
                0.919512927532196, 
                -0.16508473455905914, 
                0.686149001121521
            ], 
            "min" : [
                -0.2593943774700165, 
                -0.9525707364082336, 
                -0.42879387736320496, 
                0.17191624641418457
            ], 
            "type" : "VEC4"
        }, 
        {
            "bufferView" : 16, 
            "componentType" : 5126, 
            "count" : 7, 
            "max" : [
                0.7916666666666667
            ], 
            "min" : [
                0.0
            ], 
            "type" : "SCALAR"
        }, 
        {
            "bufferView" : 17, 
            "componentType" : 5126, 
            "count" : 21, 
            "max" : [
                62.99055480957031, 
                62.99055480957031, 
                62.99055480957031
            ], 
            "min" : [
                0.0, 
                0.0, 
                0.0
            ], 
            "type" : "VEC3"
        }
    ], 
    "animations" : [
        {
            "channels" : [
                {
                    "sampler" : 0, 
                    "target" : {
                        "node" : 0, 
                        "path" : "translation"
                    }
                }, 
                {
                    "sampler" : 1, 
                    "target" : {
                        "node" : 0, 
                        "path" : "rotation"
                    }
                }, 
                {
                    "sampler" : 2, 
                    "target" : {
                        "node" : 0, 
                        "path" : "scale"
                    }
                }, 
                {
                    "sampler" : 3, 
                    "target" : {
                        "node" : 1, 
                        "path" : "translation"
                    }
                }, 
                {
                    "sampler" : 4, 
                    "target" : {
                        "node" : 1, 
                        "path" : "rotation"
                    }
                }, 
                {
                    "sampler" : 5, 
                    "target" : {
                        "node" : 1, 
                        "path" : "scale"
                    }
                }
            ], 
            "samplers" : [
                {
                    "input" : 6, 
                    "interpolation" : "CUBICSPLINE", 
                    "output" : 7
                }, 
                {
                    "input" : 8, 
                    "interpolation" : "LINEAR", 
                    "output" : 9
                }, 
                {
                    "input" : 10, 
                    "interpolation" : "CUBICSPLINE", 
                    "output" : 11
                }, 
                {
                    "input" : 12, 
                    "interpolation" : "CUBICSPLINE", 
                    "output" : 13
                }, 
                {
                    "input" : 14, 
                    "interpolation" : "LINEAR", 
                    "output" : 15
                }, 
                {
                    "input" : 16, 
                    "interpolation" : "CUBICSPLINE", 
                    "output" : 17
                }
            ]
        }
    ], 
    "asset" : {
        "generator" : "Khronos Blender glTF 2.0 exporter", 
        "version" : "2.0"
    }, 
    "bufferViews" : [
        {
            "buffer" : 0, 
            "byteLength" : 312, 
            "byteOffset" : 0, 
            "target" : 34963
        }, 
        {
            "buffer" : 0, 
            "byteLength" : 2664, 
            "byteOffset" : 312, 
            "target" : 34962
        }, 
        {
            "buffer" : 0, 
            "byteLength" : 2664, 
            "byteOffset" : 2976, 
            "target" : 34962
        }, 
        {
            "buffer" : 0, 
            "byteLength" : 108, 
            "byteOffset" : 5640, 
            "target" : 34963
        }, 
        {
            "buffer" : 0, 
            "byteLength" : 912, 
            "byteOffset" : 5748, 
            "target" : 34962
        }, 
        {
            "buffer" : 0, 
            "byteLength" : 912, 
            "byteOffset" : 6660, 
            "target" : 34962
        }, 
        {
            "buffer" : 0, 
            "byteLength" : 16, 
            "byteOffset" : 7572
        }, 
        {
            "buffer" : 0, 
            "byteLength" : 144, 
            "byteOffset" : 7588
        }, 
        {
            "buffer" : 0, 
            "byteLength" : 80, 
            "byteOffset" : 7732
        }, 
        {
            "buffer" : 0, 
            "byteLength" : 320, 
            "byteOffset" : 7812
        }, 
        {
            "buffer" : 0, 
            "byteLength" : 28, 
            "byteOffset" : 8132
        }, 
        {
            "buffer" : 0, 
            "byteLength" : 252, 
            "byteOffset" : 8160
        }, 
        {
            "buffer" : 0, 
            "byteLength" : 28, 
            "byteOffset" : 8412
        }, 
        {
            "buffer" : 0, 
            "byteLength" : 252, 
            "byteOffset" : 8440
        }, 
        {
            "buffer" : 0, 
            "byteLength" : 80, 
            "byteOffset" : 8692
        }, 
        {
            "buffer" : 0, 
            "byteLength" : 320, 
            "byteOffset" : 8772
        }, 
        {
            "buffer" : 0, 
            "byteLength" : 28, 
            "byteOffset" : 9092
        }, 
        {
            "buffer" : 0, 
            "byteLength" : 252, 
            "byteOffset" : 9120
        }
    ], 
    "buffers" : [
        {
            "byteLength" : 9372, 
            "uri" : "sword.bin"
        }
    ], 
    "materials" : [
        {
            "name" : "SVGMat.001", 
            "pbrMetallicRoughness" : {
                "baseColorFactor" : [
                    0.3168627547750287, 
                    0.3545098119156034, 
                    0.40784316670660914, 
                    1.0
                ], 
                "metallicFactor" : 0.0
            }
        }, 
        {
            "name" : "SVGMat.002", 
            "pbrMetallicRoughness" : {
                "baseColorFactor" : [
                    0.10447888244944536, 
                    0.05718354182840102, 
                    0.016627035487666086, 
                    1.0
                ], 
                "metallicFactor" : 0.0
            }
        }
    ], 
    "meshes" : [
        {
            "name" : "Mesh", 
            "primitives" : [
                {
                    "attributes" : {
                        "NORMAL" : 2, 
                        "POSITION" : 1
                    }, 
                    "indices" : 0, 
                    "material" : 1
                }
            ]
        }, 
        {
            "name" : "Mesh.001", 
            "primitives" : [
                {
                    "attributes" : {
                        "NORMAL" : 5, 
                        "POSITION" : 4
                    }, 
                    "indices" : 3, 
                    "material" : 0
                }
            ]
        }
    ], 
    "nodes" : [
        {
            "mesh" : 1, 
            "name" : "Curve", 
            "rotation" : [
                -7.450580596923828e-09, 
                -9.313225746154785e-10, 
                4.656612873077393e-10, 
                1.0
            ], 
            "translation" : [
                0.0, 
                0.0011430978775024414, 
                -0.0
            ]
        }, 
        {
            "children" : [
                0
            ], 
            "mesh" : 0, 
            "name" : "Hilt", 
            "rotation" : [
                0.35247939825057983, 
                0.6409982442855835, 
                -0.36806410551071167, 
                0.5739411115646362
            ], 
            "scale" : [
                5.98211669921875, 
                5.98211669921875, 
                5.98211669921875
            ], 
            "translation" : [
                -0.8509445190429688, 
                5.290916442871094, 
                2.89190673828125
            ]
        }
    ], 
    "scene" : 0, 
    "scenes" : [
        {
            "name" : "Scene", 
            "nodes" : [
                1
            ]
        }
    ]
}
